<?xml version="1.0" encoding="UTF-8"?>
<svg id="Layer_2" data-name="Layer 2" xmlns="http://www.w3.org/2000/svg" viewBox="0 0 160 160">
  <defs>
    <style>
      .cls-1 {
        stroke: lime;
      }

      .cls-1, .cls-2 {
        fill: none;
        stroke-miterlimit: 10;
        stroke-width: 2px;
      }

      .cls-2 {
        stroke: #fff;
      }
    </style>
  </defs>
  <g id="Layer_1-2" data-name="Layer 1">
    <rect width="160" height="160"/>
    <path class="cls-2" d="M26.6820446704,82.5032646201l.0000004872-10.2677574173c6.8707777984-.1547520073,11.5499042876,2.0484851793,10.4593197918,10.4593207906l-5.2360455609-.0000007308"/>
    <polyline class="cls-2" points="45.0732826058 77.435864475 50.3130761477 72.2280208938 39.8462690481 72.2280208938 39.8462690481 82.6948279933 50.3130761477 82.6948279933"/>
    <polygon class="cls-2" points="80.951221604 82.6651442074 70.5437820762 82.6651442074 70.5437820762 72.2577046796 80.951221604 72.2577046796 75.7411480919 77.4360094508 80.951221604 82.6651442074"/>
    <polyline class="cls-2" points="52.9106277386 72.2280208938 64.5470181446 72.2280208938 58.7217189182 74.9900908678 58.8673513988 83.8644112997"/>
    <polyline class="cls-2" points="95.5857460402 72.4020171631 106.8741439076 72.4020171631 101.2230534001 75.081485943 101.3643306628 83.6904150304"/>
    <polyline class="cls-1" points="93.6201888763 72.2450618491 83.1874636875 77.5665159976 93.6201888763 82.6777870379"/>
    <polyline class="cls-2" points="121.6071500392 82.7471355597 116.2837790079 72.3106523169 111.1706667964 82.7471355597"/>
    <polyline class="cls-2" points="125.9036729281 82.6493413052 125.9036729281 72.160551399 136.5054190171 72.160551399 136.5054190171 77.5682185891 128.5222370338 77.4049463521 136.5054190171 82.7622974881"/>
  </g>
</svg>